:SAMPLES-PER-SECOND 30
:FULLY-SPECIFIED
:DEGREES
350
root  -3.44169 41.0294 -0.129709 61.2099 -89.635 -59.3496
RightUpLeg  2.14654 -1.06725 -0.762196
RightLeg  -6.10752 -20.3737 3.04451
RightFoot  2.66076 -0.199199 1.72884
RightToes  -3.1126e-008 1.75238e-005 3.56266e-009
Spine  7.87103 -2.06977 -7.39766
Spine1  -13.8468 -2.81149 9.93841
HEad  -0.617169 -2.4234 0.686386
LeftShoulder1  0.254936 2.26905 -13.641
LeftArm  -23.3601 -36.0042 -53.7403
LeftForeArm  57.4111 -75.8774 -40.8218
LeftHand  -0.578558 -4.29093 7.2157
RightShoulder  0.604882 -0.964168 17.3638
RightArm  -17.9035 -26.8485 41.4362
RightForeArm  114.468 77.9909 120.61
RightHand  -0.0202957 8.09063 -0.554624
LeftUpLeg  2.1653 1.28905 3.40662
LeftLeg  -5.00011 17.2825 -1.51846
LeftFoot  2.09855 0.45596 -3.97823
LeftToes  4.78049e-008 1.46235e-008 1.34219e-009
351
root  -3.45887 41.0294 -0.122342 70.3986 -89.6675 -68.4518
RightUpLeg  2.08229 -1.04723 -0.772445
RightLeg  -6.12287 -20.3331 3.03336
RightFoot  2.65797 -0.20322 1.79904
RightToes  -3.1126e-008 1.75238e-005 3.56266e-009
Spine  7.69924 -2.08906 -7.86408
Spine1  -13.7377 -2.89247 10.7696
HEad  -0.818574 -2.16129 0.167025
LeftShoulder1  0.180011 2.62337 -13.4379
LeftArm  -25.1483 -36.7264 -53.019
LeftForeArm  58.5024 -76.3311 -42.7736
LeftHand  -0.595706 -4.39419 7.35263
RightShoulder  0.583474 -1.04861 17.3137
RightArm  -16.9248 -28.6078 41.678
RightForeArm  113.867 78.051 120.074
RightHand  -0.0595848 7.97633 -0.891812
LeftUpLeg  2.08101 1.31785 3.43494
LeftLeg  -4.91377 17.2396 -1.53949
LeftFoot  1.97071 0.48184 -4.23095
LeftToes  4.78049e-008 1.46235e-008 1.34219e-009
352
root  -3.4752 41.0294 -0.101782 101.868 -89.6417 -100.01
RightUpLeg  2.16424 -1.0536 -0.776681
RightLeg  -6.07333 -20.1521 2.98735
RightFoot  2.66404 -0.203037 1.79328
RightToes  -3.1126e-008 1.75238e-005 3.56266e-009
Spine  7.47889 -2.10225 -8.06755
Spine1  -13.3281 -2.97213 11.3101
HEad  -0.828224 -2.17166 -0.221575
LeftShoulder1  0.121478 2.91121 -13.4719
LeftArm  -26.2926 -36.8385 -52.0822
LeftForeArm  59.2763 -76.5667 -43.8252
LeftHand  -0.5909 -3.96137 7.59779
RightShoulder  0.55874 -1.14159 17.2002
RightArm  -16.474 -29.1822 42.0341
RightForeArm  113.66 78.0745 119.871
RightHand  -0.0762405 7.87768 -1.03923
LeftUpLeg  2.25189 1.3791 3.42804
LeftLeg  -4.97917 17.4754 -1.61685
LeftFoot  1.95472 0.455366 -4.00869
LeftToes  4.78049e-008 1.46235e-008 1.34219e-009
353
root  -3.47946 41.0293 -0.0588332 138.459 -89.5489 -136.635
RightUpLeg  2.13682 -1.12475 -0.871253
RightLeg  -5.96585 -19.8182 2.94626
RightFoot  2.63542 -0.206752 1.83435
RightToes  -3.1126e-008 1.75238e-005 3.56266e-009
Spine  7.27948 -2.15319 -7.6098
Spine1  -13.0775 -2.99516 10.8337
HEad  -0.43997 -2.24091 -0.268661
LeftShoulder1  0.129853 2.86515 -13.2872
LeftArm  -26.9662 -36.5266 -51.1708
LeftForeArm  59.9668 -76.675 -44.2034
LeftHand  -0.523979 -3.87107 6.83637
RightShoulder  0.495359 -1.40419 17.1639
RightArm  -16.2259 -28.963 42.5616
RightForeArm  113.802 78.1307 119.579
RightHand  -0.050513 8.0923 -0.81089
LeftUpLeg  2.31611 1.33876 3.33002
LeftLeg  -4.93751 17.7616 -1.61038
LeftFoot  1.89598 0.423 -3.74621
LeftToes  4.78049e-008 1.46235e-008 1.34219e-009
354
root  -3.46285 41.0292 -0.0134663 134.943 -89.3305 -133.215
RightUpLeg  2.23573 -1.07173 -0.8225
RightLeg  -6.04395 -19.7095 2.94694
RightFoot  2.73349 -0.213575 1.88076
RightToes  -3.1126e-008 1.75238e-005 3.56266e-009
Spine  7.24487 -2.19093 -6.91919
Spine1  -12.8972 -2.99369 10.1777
HEad  -0.252401 -1.77823 -0.255305
LeftShoulder1  0.191585 2.56963 -13.4891
LeftArm  -27.2908 -36.0721 -50.19
LeftForeArm  59.214 -76.3962 -42.8819
LeftHand  -0.515202 -4.29648 6.4562
RightShoulder  0.489563 -1.41654 17.0125
RightArm  -16.123 -28.0563 42.8782
RightForeArm  113.727 78.1488 119.447
RightHand  -0.0545481 8.02859 -0.847425
LeftUpLeg  2.19378 1.40346 3.38544
LeftLeg  -4.44753 17.7713 -1.45542
LeftFoot  1.60942 0.441929 -3.97923
LeftToes  4.78049e-008 1.46235e-008 1.34219e-009
355
root  -3.45855 41.0291 0.047859 166.835 -88.8454 -165.309
RightUpLeg  2.19651 -1.12456 -1.00341
RightLeg  -5.64511 -19.0116 2.6332
RightFoot  2.69848 -0.226715 1.99005
RightToes  -3.1126e-008 1.75238e-005 3.56266e-009
Spine  7.18374 -1.98768 -6.29451
Spine1  -12.5967 -2.7499 9.36111
HEad  -0.143066 -1.63619 -0.0192758
LeftShoulder1  0.228758 2.39659 -13.6658
LeftArm  -27.2385 -35.6218 -49.8778
LeftForeArm  58.5883 -76.0643 -41.3433
LeftHand  -0.560916 -5.05296 6.5342
RightShoulder  0.496809 -1.37641 16.8952
RightArm  -15.8705 -27.0968 42.8876
RightForeArm  114.248 78.0581 120.151
RightHand  -0.0960272 7.89375 -1.21047
LeftUpLeg  2.64394 1.4214 3.2128
LeftLeg  -4.74633 18.3821 -1.71404
LeftFoot  1.62771 0.41938 -3.7771
LeftToes  4.78049e-008 1.46235e-008 1.34219e-009
356
root  -3.44815 41.0289 0.102356 168.24 -88.4795 -166.727
RightUpLeg  2.12692 -1.10509 -1.0489
RightLeg  -5.58522 -18.6615 2.54095
RightFoot  2.7689 -0.23519 2.05248
RightToes  -3.1126e-008 1.75238e-005 3.56266e-009
Spine  7.08256 -1.96241 -5.51795
Spine1  -12.5482 -2.64551 8.45354
HEad  -0.0439956 -1.64473 0.165167
LeftShoulder1  0.23214 2.37494 -13.5492
LeftArm  -26.741 -35.141 -50.1483
LeftForeArm  58.1049 -75.8687 -40.5443
LeftHand  -0.591175 -5.05792 6.86902
RightShoulder  0.558543 -1.11692 16.9191
RightArm  -15.6638 -26.2954 42.7591
RightForeArm  113.771 78.0238 120.203
RightHand  -0.0996803 7.88972 -1.24275
LeftUpLeg  2.71695 1.36902 3.11157
LeftLeg  -4.819 18.9275 -1.74761
LeftFoot  1.52173 0.427754 -3.87722
LeftToes  4.78049e-008 1.46235e-008 1.34219e-009
357
root  -3.42753 41.0288 0.158836 172.898 -88.03 -171.355
RightUpLeg  1.88308 -1.0915 -1.15466
RightLeg  -5.32569 -18.2075 2.33393
RightFoot  2.7861 -0.255754 2.21659
RightToes  -3.1126e-008 1.75238e-005 3.56266e-009
Spine  6.92416 -1.85185 -5.11053
Spine1  -12.2981 -2.50937 8.00692
HEad  -0.19723 -1.61884 0.144972
LeftShoulder1  0.183339 2.61371 -13.5613
LeftArm  -25.9766 -35.111 -50.9106
LeftForeArm  57.9465 -75.7755 -40.154
LeftHand  -0.596262 -4.81496 7.07674
RightShoulder  0.574356 -1.04785 16.8989
RightArm  -15.1774 -25.7584 42.5456
RightForeArm  114.148 77.9749 120.603
RightHand  -0.104134 7.88344 -1.28158
LeftUpLeg  2.74661 1.21305 2.88889
LeftLeg  -4.91598 19.5656 -1.74894
LeftFoot  1.62203 0.383851 -3.46522
LeftToes  4.78049e-008 1.46235e-008 1.34219e-009
358
root  -3.42134 41.0287 0.199814 174.055 -87.761 -172.474
RightUpLeg  1.81905 -1.04513 -1.19632
RightLeg  -5.37018 -17.9661 2.26022
RightFoot  2.90323 -0.271561 2.33128
RightToes  -3.1126e-008 1.75238e-005 3.56266e-009
Spine  6.6568 -1.92648 -4.91245
Spine1  -11.9394 -2.58013 7.7934
HEad  -0.265631 -1.56676 0.027359
LeftShoulder1  0.260275 2.24818 -13.7395
LeftArm  -25.8897 -34.899 -50.4896
LeftForeArm  57.8365 -75.8258 -40.4279
LeftHand  -0.606111 -4.54857 7.36467
RightShoulder  0.612845 -0.882486 16.867
RightArm  -14.9843 -25.4305 42.8276
RightForeArm  113.541 78.1515 119.371
RightHand  -0.0935428 8.06971 -1.18131
LeftUpLeg  2.72551 1.14996 2.80129
LeftLeg  -4.90748 19.9288 -1.74613
LeftFoot  1.5718 0.397519 -3.5969
LeftToes  4.78049e-008 1.46235e-008 1.34219e-009
359
root  -3.40771 41.0286 0.239375 172.397 -87.4795 -170.802
RightUpLeg  1.79945 -0.967881 -1.13635
RightLeg  -5.48043 -17.7615 2.26269
RightFoot  3.04331 -0.270386 2.30702
RightToes  -3.1126e-008 1.75238e-005 3.56266e-009
Spine  6.66145 -2.0255 -4.66923
Spine1  -11.9242 -2.66012 7.57359
HEad  -0.147272 -1.56807 0.03623
LeftShoulder1  0.263117 2.22247 -13.4905
LeftArm  -25.0541 -35.2035 -50.9658
LeftForeArm  57.8394 -75.7521 -40.0793
LeftHand  -0.595451 -4.46002 7.29612
RightShoulder  0.668631 -0.682513 17.2148
RightArm  -14.8557 -25.5553 42.8063
RightForeArm  112.941 78.2974 118.278
RightHand  -0.0393603 8.10884 -0.715836
LeftUpLeg  2.72976 1.15853 2.82563
LeftLeg  -4.92333 20.188 -1.73863
LeftFoot  1.53802 0.38704 -3.42918
LeftToes  4.78049e-008 1.46235e-008 1.34219e-009
360
root  -3.40505 41.0285 0.270482 172.797 -87.2349 -171.188
RightUpLeg  1.75182 -0.92611 -1.14255
RightLeg  -5.49415 -17.5762 2.22109
RightFoot  3.10468 -0.273713 2.29796
RightToes  -3.1126e-008 1.75238e-005 3.56266e-009
Spine  6.8095 -2.13278 -5.00217
Spine1  -12.109 -2.80084 8.03948
HEad  0.118013 -1.46862 -0.271291
LeftShoulder1  0.349554 1.83062 -13.929
LeftArm  -24.2189 -35.6445 -50.291
LeftForeArm  57.5401 -75.664 -39.7679
LeftHand  -0.545698 -4.14261 6.92847
RightShoulder  0.620722 -0.869523 17.0756
RightArm  -13.7544 -26.1727 43.0875
RightForeArm  111.9 78.3334 117.705
RightHand  -0.117156 7.99306 -1.38852
LeftUpLeg  2.70175 1.13697 2.78772
LeftLeg  -4.82597 20.4782 -1.69633
LeftFoot  1.47046 0.395545 -3.5919
LeftToes  4.78049e-008 1.46235e-008 1.34219e-009
361
root  -3.40417 41.0284 0.300801 172.081 -87.1426 -170.556
RightUpLeg  1.87145 -0.948252 -1.15903
RightLeg  -5.56837 -17.4442 2.25469
RightFoot  3.14493 -0.28207 2.34581
RightToes  -3.1126e-008 1.75238e-005 3.56266e-009
Spine  7.10148 -2.32047 -5.58034
Spine1  -12.2892 -3.05904 8.87971
HEad  0.363747 -1.33029 -0.394327
LeftShoulder1  0.319914 1.95011 -13.5798
LeftArm  -22.6338 -36.4775 -51.1934
LeftForeArm  57.1791 -75.5015 -39.1552
LeftHand  -0.593735 -3.85805 7.71829
RightShoulder  0.594499 -0.96218 16.8951
RightArm  -13.1511 -27.365 43.2591
RightForeArm  111.454 78.4641 116.69
RightHand  -0.120401 8.06898 -1.41212
LeftUpLeg  2.79378 1.14267 2.76997
LeftLeg  -4.80896 20.5659 -1.67529
LeftFoot  1.436 0.390405 -3.55687
LeftToes  4.78049e-008 1.46235e-008 1.34219e-009
362
root  -3.40307 41.0284 0.332594 171.572 -87.0142 -170.134
RightUpLeg  1.958 -0.980963 -1.18341
RightLeg  -5.57934 -17.2899 2.2687
RightFoot  3.18048 -0.292488 2.4415
RightToes  -3.1126e-008 1.75238e-005 3.56266e-009
Spine  7.19803 -2.57757 -6.2162
Spine1  -12.1832 -3.39774 9.66188
HEad  0.521564 -0.798437 -0.409407
LeftShoulder1  0.31348 1.9516 -13.1499
LeftArm  -20.9516 -37.6282 -51.7077
LeftForeArm  56.4602 -75.1736 -37.9812
LeftHand  -0.595074 -4.55424 7.22977
RightShoulder  0.613136 -0.888527 16.9465
RightArm  -13.1299 -28.6186 43.2325
RightForeArm  109.835 78.6414 114.907
RightHand  -0.0128956 8.12236 -0.490737
LeftUpLeg  2.92364 1.10484 2.73226
LeftLeg  -4.86763 20.7266 -1.64955
LeftFoot  1.44235 0.380877 -3.47612
LeftToes  4.78049e-008 1.46235e-008 1.34219e-009
363
root  -3.39256 41.0284 0.351137 171.8 -86.9105 -170.391
RightUpLeg  1.96531 -0.972582 -1.20261
RightLeg  -5.59915 -17.2105 2.24869
RightFoot  3.25988 -0.297351 2.49508
RightToes  -3.1126e-008 1.75238e-005 3.56266e-009
Spine  7.58357 -2.79675 -7.16628
Spine1  -12.4546 -3.71127 10.7768
HEad  0.642559 -0.45033 -0.241251
LeftShoulder1  0.377514 1.63811 -13.1945
LeftArm  -18.9436 -39.14 -51.8451
LeftForeArm  55.7787 -74.9164 -37.1527
LeftHand  -0.547952 -4.57852 6.67058
RightShoulder  0.656469 -0.702103 16.9168
RightArm  -12.9619 -30.5482 42.8098
RightForeArm  109.12 78.6223 114.761
RightHand  -0.0716508 7.8852 -0.997788
LeftUpLeg  2.91716 1.12509 2.7194
LeftLeg  -4.78846 20.8129 -1.64975
LeftFoot  1.42557 0.376069 -3.4829
LeftToes  4.78049e-008 1.46235e-008 1.34219e-009
